# xmcd CD database file
#
# Track frame offsets:
#	150
#	30610
#	63954
#	88338
#	112706
#	134357
#	154182
#	173560
#	197661
#	224149
#	240598
#	274744
#	277758
#	293656
#	323845
#
# Disc length: 4611 seconds
#
# Revision: 0
# Processed by: cddbd v1.5.2PL0 Copyright (c) Steve Scherf et al.
# Submitted via: CDex 1.70beta2
#
DISCID=d412010f
DTITLE=(V-A) - The Art of Jazz - 1959 Jazz' Greatest Year CD2
DYEAR=1959
DGENRE=Jazz
TTITLE0=Blue Rondo A La Turk
TTITLE1=Strange Meadow Lark
TTITLE2=Take Five
TTITLE3=Three To Get Ready
TTITLE4=Kathy's Waltz
TTITLE5=Everybody's Jumpin'
TTITLE6=Pick Up Sticks
TTITLE7=Minority
TTITLE8=Young And Foolish
TTITLE9=Lucky To Be Me
TTITLE10=Night And Day
TTITLE11=Epilogue
TTITLE12=Tenderly
TTITLE13=Peace Piece
TTITLE14=What Is There To Say
EXTD=YEAR: 1959
EXTT0=
EXTT1=
EXTT2=
EXTT3=
EXTT4=
EXTT5=
EXTT6=
EXTT7=
EXTT8=
EXTT9=
EXTT10=
EXTT11=
EXTT12=
EXTT13=
EXTT14=
PLAYORDER=
